<svg width="64" height="64" viewBox="0 0 64 64" fill="none" xmlns="http://www.w3.org/2000/svg">
<rect width="64" height="64" rx="24" fill="#FFC75C"/>
<path d="M30.6732 43.9996C30.6732 42.8949 29.7778 41.9996 28.6732 41.9996C27.5687 41.9996 26.6732 42.8949 26.6732 43.9996H20.0066C19.2702 43.9996 18.6732 43.4025 18.6732 42.6662V21.3328C18.6732 20.5965 19.2702 19.9995 20.0066 19.9995H26.6732C26.6732 21.1041 27.5687 21.9995 28.6732 21.9995C29.7778 21.9995 30.6732 21.1041 30.6732 19.9995H44.0066C44.743 19.9995 45.3399 20.5965 45.3399 21.3328V28.6662C43.499 28.6662 42.0066 30.1586 42.0066 31.9996C42.0066 33.8405 43.499 35.3329 45.3399 35.3329V42.6662C45.3399 43.4025 44.743 43.9996 44.0066 43.9996H30.6732ZM28.6732 29.9996C29.7778 29.9996 30.6732 29.1041 30.6732 27.9995C30.6732 26.895 29.7778 25.9995 28.6732 25.9995C27.5687 25.9995 26.6732 26.895 26.6732 27.9995C26.6732 29.1041 27.5687 29.9996 28.6732 29.9996ZM28.6732 37.9996C29.7778 37.9996 30.6732 37.1041 30.6732 35.9996C30.6732 34.8949 29.7778 33.9996 28.6732 33.9996C27.5687 33.9996 26.6732 34.8949 26.6732 35.9996C26.6732 37.1041 27.5687 37.9996 28.6732 37.9996Z" fill="#004D47"/>
</svg>
