<svg width="1504" height="198" viewBox="0 0 1504 198" fill="none" xmlns="http://www.w3.org/2000/svg">
<g clip-path="url(#clip0_3098_1094)">
<path d="M13.4297 181.997C13.4297 153.061 13.4297 111.413 13.4297 82.4769C13.4297 82.4769 18.6813 82.4769 27.1496 82.4769C47.1713 82.4164 67.193 82.4769 87.2148 82.4769C96.799 82.4769 101.788 77.9368 101.788 69.0987C101.788 50.8171 102.051 18.6734 101.722 0.391845L116.952 0.391357C137.696 0.815103 158.505 0.512428 179.315 0.512428C187.586 0.512428 192.838 0.511755 192.838 0.511755C192.903 19.096 192.838 50.0907 192.838 68.6749C192.838 77.9368 197.696 82.4164 207.674 82.4164C229.008 82.4164 250.343 82.4164 271.678 82.4164C278.045 82.4164 286.507 82.4164 286.507 82.4164C286.311 83.7482 280.277 93.7364 279.555 94.9471C257.958 131.631 236.295 168.316 214.698 205C211.087 211.175 209.623 214.201 209.623 214.201C185.794 214.201 134.601 214.313 110.772 214.313C110.772 214.313 114.129 208.572 118.265 201.549C138.352 167.408 158.243 133.205 178.724 99.3057C184.37 89.9227 179.643 84.1719 169.074 84.5351C152.597 85.1405 136.055 84.7167 119.512 84.7167C109.14 84.7167 104.217 89.3174 104.217 98.8214C104.217 155.24 104.217 211.598 104.283 268.017C104.283 273.041 104.283 281.524 104.283 281.524C104.283 281.524 93.7137 281.456 91.5474 281.456C69.7532 281.577 35.2239 281.516 13.4297 281.516C13.4297 281.516 13.4297 276.673 13.4297 269.712C13.4297 240.474 13.4297 211.235 13.4297 181.997Z" fill="#99FE00"/>
<path d="M661.94 281.609H602.862V82.7203H661.94V281.609Z" fill="white"/>
<path d="M1005.42 138.123L1042.49 82.7203H1107.78L1040.49 182.161L1107.78 281.609H1042.49L1005.42 226.206L968.358 281.609H902.782L970.069 182.161L902.782 82.7203H968.358L1005.42 138.123Z" fill="white"/>
<path fill-rule="evenodd" clip-rule="evenodd" d="M507.839 82.7203C606.469 83.0068 608.179 228.087 507.839 226.67H404.017V281.465H344.723V82.7203H507.839ZM404.017 176.701H507.839C528.076 176.698 528.36 132.692 507.269 132.689H404.017V176.701Z" fill="white"/>
<path d="M882.37 141.517H850.956C829.3 141.517 811.739 158.997 811.739 180.559V211.546H780.607C758.952 211.548 741.403 229.034 741.403 250.596V281.465H682.358V222.675H713.477C735.132 222.674 752.693 205.187 752.694 183.626V152.763H784.108C805.764 152.763 823.325 135.277 823.325 113.714V82.7203H882.37V141.517Z" fill="white"/>
<path d="M882.383 281.465H823.332V224.938C823.333 224.334 823.579 223.756 824.007 223.329C824.436 222.903 825.015 222.663 825.62 222.662H882.383V281.465Z" fill="white"/>
<path d="M1284.93 132.689H1187.47V157.111H1252.4V207.08H1187.92V231.496H1288.36V281.465H1128.57V82.7203H1284.93V132.689Z" fill="white"/>
<path d="M1431.23 182.096V82.7203H1490.57V281.465H1431.23L1365.04 182.096V281.465H1305.7V82.7203H1365.04L1431.23 182.096Z" fill="white"/>
<path d="M741.397 139.241C741.395 139.843 741.155 140.424 740.728 140.85C740.3 141.274 739.719 141.515 739.115 141.517H682.352V82.7203H741.397V139.241Z" fill="white"/>
</g>
<defs>
<clipPath id="clip0_3098_1094">
<rect width="1504" height="198" fill="white"/>
</clipPath>
</defs>
</svg>
