<svg width="483" height="433" viewBox="0 0 483 433" fill="none" xmlns="http://www.w3.org/2000/svg">
<g clip-path="url(#clip0_2588_6342)">
<rect width="232" height="1" transform="matrix(-1 0 0 1 500 43)" fill="white"/>
<rect width="330" height="1" transform="matrix(-1 0 0 1 500 141)" fill="white"/>
<rect width="406" height="1" transform="matrix(-1 0 0 1 500 239)" fill="white"/>
<rect width="500" height="1" transform="matrix(-1 0 0 1 500 337)" fill="white"/>
<rect width="484" height="1" transform="matrix(0 -1 -1 0 390 433)" fill="white"/>
<rect width="412" height="1" transform="matrix(0 -1 -1 0 292 433)" fill="white"/>
<rect width="314" height="1" transform="matrix(0 -1 -1 0 194 433)" fill="white"/>
<rect width="194" height="1" transform="matrix(0 -1 -1 0 96 433)" fill="white"/>
</g>
<defs>
<clipPath id="clip0_2588_6342">
<rect width="483" height="433" fill="white" transform="matrix(-1 0 0 1 483 0)"/>
</clipPath>
</defs>
</svg>
