<svg width="189" height="187" viewBox="0 0 189 187" fill="none" xmlns="http://www.w3.org/2000/svg">
<g clip-path="url(#clip0_2801_26681)">
<rect width="89.8525" height="0.77459" transform="matrix(-1 0 0 1 193.648 36.4056)" fill="white"/>
<rect width="127.807" height="0.77459" transform="matrix(-1 0 0 1 193.648 74.3606)" fill="white"/>
<rect width="157.242" height="0.77459" transform="matrix(-1 0 0 1 193.648 112.316)" fill="white"/>
<rect width="193.648" height="0.77459" transform="matrix(-1 0 0 1 193.648 150.271)" fill="white"/>
<rect width="187.451" height="0.77459" transform="matrix(0 -1 -1 0 151.043 187.451)" fill="white"/>
<rect width="159.566" height="0.77459" transform="matrix(0 -1 -1 0 113.09 187.451)" fill="white"/>
<rect width="121.611" height="0.77459" transform="matrix(0 -1 -1 0 75.1328 187.451)" fill="white"/>
<rect width="75.1352" height="0.77459" transform="matrix(0 -1 -1 0 37.1797 187.451)" fill="white"/>
</g>
<defs>
<clipPath id="clip0_2801_26681">
<rect width="189" height="187.451" fill="white" transform="matrix(-1 0 0 1 189 0)"/>
</clipPath>
</defs>
</svg>
