<svg width="390" height="53" viewBox="0 0 390 53" fill="none" xmlns="http://www.w3.org/2000/svg">
<g clip-path="url(#clip0_2801_26558)">
<mask id="path-1-inside-1_2801_26558" fill="white">
<path d="M0 0H390V53H0V0Z"/>
</mask>
<path d="M0 0H390V53H0V0Z" fill="url(#paint0_linear_2801_26558)"/>
<path d="M19.1953 46.8498C19.1953 39.8977 19.1953 29.8914 19.1953 22.9393C19.1953 22.9393 20.4454 22.9393 22.4611 22.9393C27.2269 22.9247 31.9927 22.9393 36.7585 22.9393C39.0399 22.9393 40.2274 21.8485 40.2274 19.725C40.2274 15.3327 40.2899 7.60986 40.2118 3.21752L43.8369 3.21741C48.7746 3.31922 53.728 3.2465 58.6813 3.2465C60.6501 3.2465 61.9002 3.24633 61.9002 3.24633C61.9158 7.71139 61.9002 15.1581 61.9002 19.6232C61.9002 21.8485 63.0565 22.9247 65.4316 22.9247C70.5099 22.9247 75.5882 22.9247 80.6665 22.9247C82.1822 22.9247 84.1965 22.9247 84.1965 22.9247C84.1497 23.2447 82.7135 25.6445 82.5416 25.9354C77.4008 34.7491 72.2443 43.5629 67.1035 52.3766C66.2441 53.8601 65.8957 54.5873 65.8957 54.5873C60.2236 54.5873 48.038 54.6143 42.3659 54.6143C42.3659 54.6143 43.165 53.2347 44.1494 51.5476C48.9309 43.3447 53.6655 35.1273 58.5407 26.9825C59.8845 24.7282 58.7594 23.3465 56.2437 23.4338C52.3217 23.5792 48.384 23.4774 44.4463 23.4774C41.9775 23.4774 40.8056 24.5828 40.8056 26.8662C40.8056 40.4213 40.8056 53.9619 40.8212 67.5171C40.8212 68.7242 40.8212 70.7622 40.8212 70.7622C40.8212 70.7622 38.3055 70.7459 37.7898 70.7459C32.6021 70.7749 24.383 70.7604 19.1953 70.7604C19.1953 70.7604 19.1953 69.5969 19.1953 67.9243C19.1953 60.8995 19.1953 53.8747 19.1953 46.8498Z" fill="#99FE00"/>
<path d="M173.563 70.7826H159.5V22.9977H173.563V70.7826Z" fill="white"/>
<path d="M255.323 36.3088L264.146 22.9977H279.686L263.67 46.8894L279.686 70.7826H264.146L255.323 57.4716L246.5 70.7826H230.891L246.907 46.8894L230.891 22.9977H246.5L255.323 36.3088Z" fill="white"/>
<path fill-rule="evenodd" clip-rule="evenodd" d="M136.882 22.9977C160.359 23.0666 160.766 57.9236 136.882 57.5831H112.169V70.748H98.0547V22.9977H136.882ZM112.169 45.5776H136.882C141.699 45.5767 141.766 35.004 136.746 35.0033H112.169V45.5776Z" fill="white"/>
<path d="M226.032 37.1241H218.554C213.4 37.1242 209.22 41.3239 209.22 46.5045V53.9494H201.809C196.655 53.9498 192.477 58.1509 192.477 63.3314V70.748H178.423V56.6232H185.83C190.985 56.623 195.165 52.4216 195.165 47.2413V39.8262H202.643C207.797 39.8262 211.977 35.6249 211.977 30.4442V22.9977H226.032V37.1241Z" fill="white"/>
<path d="M226.035 70.748H211.979V57.1668C211.979 57.0219 212.038 56.8828 212.14 56.7803C212.242 56.6781 212.38 56.6203 212.524 56.6201H226.035V70.748Z" fill="white"/>
<path d="M321.855 35.0033H298.656V40.8709H314.112V52.8764H298.762V58.7425H322.669V70.748H284.635V22.9977H321.855V35.0033Z" fill="white"/>
<path d="M356.678 46.8737V22.9977H370.803V70.748H356.678L340.924 46.8737V70.748H326.799V22.9977H340.924L356.678 46.8737Z" fill="white"/>
<path d="M192.476 36.5774C192.475 36.722 192.418 36.8616 192.317 36.9639C192.215 37.0659 192.076 37.1237 191.933 37.1241H178.421V22.9977H192.476V36.5774Z" fill="white"/>
</g>
<path d="M0 0V1H390V0V-1H0V0Z" fill="#29473C" mask="url(#path-1-inside-1_2801_26558)"/>
<defs>
<linearGradient id="paint0_linear_2801_26558" x1="185.25" y1="6.31809e-07" x2="185.25" y2="53" gradientUnits="userSpaceOnUse">
<stop stop-color="#001B11"/>
<stop offset="1" stop-color="#065136"/>
</linearGradient>
<clipPath id="clip0_2801_26558">
<path d="M0 0H390V53H0V0Z" fill="white"/>
</clipPath>
</defs>
</svg>
