<svg width="166" height="34" viewBox="0 0 166 34" fill="none" xmlns="http://www.w3.org/2000/svg">
<path d="M1.48218 21.5256C1.48218 18.3314 1.48218 13.7339 1.48218 10.5397C1.48218 10.5397 2.06181 10.5397 2.99647 10.5397C5.20632 10.533 7.41616 10.5397 9.62601 10.5397C10.6838 10.5397 11.2345 10.0385 11.2345 9.06283C11.2345 7.04474 11.2635 3.49641 11.2272 1.47831L12.9082 1.47826C15.1977 1.52504 17.4945 1.49163 19.7913 1.49163C20.7042 1.49163 21.2839 1.49155 21.2839 1.49155C21.2911 3.54306 21.2839 6.96455 21.2839 9.01606C21.2839 10.0385 21.82 10.533 22.9213 10.533C25.2761 10.533 27.6308 10.533 29.9856 10.533C30.6884 10.533 31.6224 10.533 31.6224 10.533C31.6007 10.68 30.9347 11.7826 30.855 11.9162C28.4713 15.9658 26.0803 20.0154 23.6966 24.0649C23.2981 24.7465 23.1365 25.0807 23.1365 25.0807C20.5065 25.0807 14.8562 25.093 12.2261 25.093C12.2261 25.093 12.5966 24.4592 13.0531 23.684C15.2702 19.9151 17.4655 16.1395 19.7261 12.3974C20.3492 11.3616 19.8275 10.7268 18.661 10.7669C16.8424 10.8337 15.0166 10.7869 13.1908 10.7869C12.046 10.7869 11.5026 11.2948 11.5026 12.3439C11.5026 18.572 11.5026 24.7933 11.5098 31.0213C11.5098 31.576 11.5098 32.5124 11.5098 32.5124C11.5098 32.5124 10.3433 32.5048 10.1042 32.5048C7.69874 32.5182 3.88765 32.5115 1.48218 32.5115C1.48218 32.5115 1.48218 31.9769 1.48218 31.2085C1.48218 27.9808 1.48218 24.7532 1.48218 21.5256Z" fill="#F95117"/>
<path d="M73.06 32.5217H66.5394V10.5665H73.06V32.5217Z" fill="white"/>
<path d="M110.971 16.6824L115.062 10.5665H122.268L114.841 21.5438L122.268 32.5217H115.062L110.971 26.4059L106.88 32.5217H99.6423L107.069 21.5438L99.6423 10.5665H106.88L110.971 16.6824Z" fill="white"/>
<path fill-rule="evenodd" clip-rule="evenodd" d="M56.0515 10.5665C66.9375 10.5982 67.1263 26.6135 56.0515 26.4571H44.5924V32.5059H38.048V10.5665H56.0515ZM44.5924 20.9411H56.0515C58.2851 20.9407 58.3165 16.0829 55.9886 16.0826H44.5924V20.9411Z" fill="white"/>
<path d="M97.3894 17.057H93.9222C91.532 17.0571 89.5937 18.9866 89.5937 21.3669V24.7876H86.1575C83.7675 24.7877 81.8305 26.718 81.8305 29.0982V32.5059H75.3136V26.0161H78.7483C81.1384 26.016 83.0767 24.0856 83.0767 21.7055V18.2985H86.544C88.9342 18.2985 90.8724 16.3682 90.8725 13.9879V10.5665H97.3894V17.057Z" fill="white"/>
<path d="M97.3909 32.5059H90.8732V26.2658C90.8733 26.1993 90.9005 26.1354 90.9477 26.0883C90.995 26.0413 91.059 26.0147 91.1258 26.0146H97.3909V32.5059Z" fill="white"/>
<path d="M141.821 16.0826H131.064V18.7785H138.231V24.2946H131.113V26.9898H142.199V32.5059H124.563V10.5665H141.821V16.0826Z" fill="white"/>
<path d="M157.968 21.5366V10.5665H164.518V32.5059H157.968L150.663 21.5366V32.5059H144.114V10.5665H150.663L157.968 21.5366Z" fill="white"/>
<path d="M81.8298 16.8058C81.8296 16.8723 81.8032 16.9364 81.756 16.9834C81.7088 17.0303 81.6446 17.0568 81.578 17.057H75.3129V10.5665H81.8298V16.8058Z" fill="white"/>
</svg>
