<svg width="23" height="23" viewBox="0 0 23 23" fill="none" xmlns="http://www.w3.org/2000/svg">
<path d="M22.5304 8.1023C22.5243 8.45948 22.405 8.80551 22.1897 9.09057C21.9744 9.37563 21.6742 9.585 21.3323 9.68855L13.6879 11.9835C13.2896 12.1044 12.9272 12.3216 12.6328 12.6159C12.3385 12.9103 12.1213 13.2727 12.0004 13.671L9.70542 21.3154C9.60188 21.6573 9.3925 21.9575 9.10744 22.1728C8.82238 22.3882 8.47635 22.5075 8.11917 22.5135C7.76135 22.5252 7.40909 22.4228 7.11332 22.2211C6.81755 22.0193 6.5936 21.7288 6.47386 21.3914L0.0866722 2.22136C-0.0124846 1.92403 -0.0268746 1.60496 0.0451152 1.29991C0.117105 0.994858 0.27263 0.715886 0.494258 0.494258C0.715885 0.27263 0.994858 0.117105 1.29991 0.0451152C1.60496 -0.0268746 1.92403 -0.0124846 2.22136 0.0866722L21.3914 6.47386C21.7291 6.58985 22.0213 6.81 22.226 7.10262C22.4307 7.39525 22.5373 7.74526 22.5304 8.1023Z" fill="white"/>
</svg>
