<svg width="1504" height="211" viewBox="0 0 1504 211" fill="none" xmlns="http://www.w3.org/2000/svg">
<path d="M13.4286 194.997C13.4286 166.061 13.4286 124.413 13.4286 95.4772C13.4286 95.4772 18.6802 95.4772 27.1485 95.4772C47.1702 95.4166 67.1919 95.4772 87.2137 95.4772C96.7979 95.4772 101.787 90.937 101.787 82.0989C101.787 63.8173 102.049 31.6737 101.721 13.3921L116.951 13.3916C137.695 13.8153 158.504 13.5127 179.314 13.5127C187.585 13.5127 192.837 13.512 192.837 13.512C192.902 32.0963 192.837 63.0909 192.837 81.6752C192.837 90.937 197.694 95.4166 207.672 95.4166C229.007 95.4166 250.342 95.4166 271.676 95.4166C278.044 95.4166 286.506 95.4166 286.506 95.4166C286.309 96.7484 280.276 106.737 279.554 107.947C257.957 144.632 236.294 181.316 214.696 218C211.086 224.175 209.622 227.202 209.622 227.202C185.793 227.202 134.6 227.314 110.771 227.314C110.771 227.314 114.128 221.572 118.264 214.55C138.351 180.408 158.242 146.206 178.723 112.306C184.368 102.923 179.642 97.1722 169.073 97.5354C152.596 98.1407 136.054 97.717 119.511 97.717C109.139 97.717 104.216 102.318 104.216 111.822C104.216 168.24 104.216 224.599 104.281 281.017C104.281 286.042 104.281 294.524 104.281 294.524C104.281 294.524 93.7126 294.456 91.5463 294.456C69.7521 294.577 35.2228 294.517 13.4286 294.517C13.4286 294.517 13.4286 289.674 13.4286 282.712C13.4286 253.474 13.4286 224.235 13.4286 194.997Z" fill="#F95117"/>
<path d="M661.941 294.609H602.863V95.7207H661.941V294.609Z" fill="white"/>
<path d="M1005.42 151.123L1042.49 95.7207H1107.78L1040.49 195.162L1107.78 294.609H1042.49L1005.42 239.206L968.359 294.609H902.783L970.07 195.162L902.783 95.7207H968.359L1005.42 151.123Z" fill="white"/>
<path fill-rule="evenodd" clip-rule="evenodd" d="M507.84 95.7207C606.469 96.0071 608.18 241.088 507.84 239.671H404.018V294.465H344.724V95.7207H507.84ZM404.018 189.702H507.84C528.076 189.698 528.361 145.693 507.27 145.69H404.018V189.702Z" fill="white"/>
<path d="M882.371 154.517H850.957C829.301 154.517 811.74 171.997 811.74 193.56V224.547H780.608C758.953 224.548 741.404 242.034 741.404 263.596V294.465H682.359V235.676H713.478C735.133 235.675 752.694 218.188 752.695 196.626V165.764H784.109C805.765 165.764 823.326 148.277 823.326 126.714V95.7207H882.371V154.517Z" fill="white"/>
<path d="M882.384 294.465H823.333V237.938C823.333 237.335 823.58 236.756 824.008 236.329C824.436 235.904 825.016 235.663 825.621 235.662H882.384V294.465Z" fill="white"/>
<path d="M1284.93 145.69H1187.47V170.112H1252.4V220.081H1187.92V244.496H1288.36V294.465H1128.57V95.7207H1284.93V145.69Z" fill="white"/>
<path d="M1431.23 195.096V95.7207H1490.57V294.465H1431.23L1365.05 195.096V294.465H1305.71V95.7207H1365.05L1431.23 195.096Z" fill="white"/>
<path d="M741.397 152.241C741.396 152.843 741.156 153.424 740.729 153.85C740.301 154.275 739.72 154.515 739.116 154.517H682.352V95.7207H741.397V152.241Z" fill="white"/>
</svg>
